<svg width="22.000000" height="22.000000" viewBox="0 0 22 22" fill="none" xmlns="http://www.w3.org/2000/svg" xmlns:xlink="http://www.w3.org/1999/xlink">
	<desc>
			Created with Pixso.
	</desc>
	<defs>
		<clipPath id="clip14_1308">
			<rect id="apple-14" width="22.000000" height="22.000000" fill="white" fill-opacity="0"/>
		</clipPath>
	</defs>
	<g clip-path="url(#clip14_1308)">
		<path id="path" d="M10.84 5.32C12.25 5.32 13.49 4.84 14.55 3.89C15.61 2.95 16.14 1.84 16.14 0.58C16.14 0.45 16.13 0.25 16.1 0C15.92 0.02 15.78 0.04 15.69 0.05C14.39 0.21 13.25 0.76 12.26 1.7C11.27 2.63 10.78 3.64 10.78 4.71C10.78 4.83 10.8 5.03 10.84 5.32ZM15.89 22C16.89 22 18 21.4 19.21 20.22C20.43 19.03 21.35 17.64 22 16.04C19.61 14.98 18.42 13.45 18.42 11.47C18.42 9.81 19.38 8.39 21.31 7.22C19.97 5.77 18.2 5.05 16 5.05C15.08 5.05 14.23 5.17 13.46 5.41L12.98 5.56L12.34 5.78C11.91 5.91 11.53 5.98 11.19 5.98C10.92 5.98 10.56 5.9 10.12 5.74L9.63 5.57L9.16 5.41C8.48 5.16 7.75 5.03 6.96 5.03C4.86 5.03 3.18 5.64 1.91 6.87C0.63 8.09 0 9.7 0 11.7C0 14.51 1.02 17.11 3.06 19.5C4.47 21.16 5.77 22 6.94 22C7.43 22 7.93 21.91 8.42 21.74L9.04 21.53L9.53 21.37C10.22 21.16 10.86 21.06 11.44 21.06C12.05 21.06 12.76 21.19 13.56 21.46L13.95 21.59C14.77 21.86 15.42 22 15.89 22Z" fill="#000000" fill-opacity="1.000000" fill-rule="nonzero"/>
	</g>
</svg>
