<svg width="50.000000" height="50.000000" viewBox="0 0 50 50" fill="none" xmlns="http://www.w3.org/2000/svg" xmlns:xlink="http://www.w3.org/1999/xlink">
	<desc>
			Created with Pixso.
	</desc>
	<defs/>
	<circle id="Oval 10" cx="25.000000" cy="25.000000" r="25.000000" fill="#03A9F4" fill-opacity="1.000000"/>
	<path id="f" d="M29.67 15.76Q30.61 14.89 32.35 14.89Q32.98 14.89 33.58 15.03Q34.67 15.27 35.66 15.95L37.34 11.44Q35.37 10.04 31.92 10.04Q27.97 10.04 25.63 11.98Q25.38 12.19 25.14 12.42Q24.72 12.84 24.37 13.32Q22.75 15.53 22.75 18.92L22.75 20.55L18.52 20.55L18.52 25.36L22.75 25.36L22.75 46L28.75 46L28.75 25.36L35.61 25.36L35.61 20.55L28.55 20.55L28.55 19.02Q28.55 16.79 29.67 15.76Z" fill="#221F1F" fill-opacity="1.000000" fill-rule="evenodd"/>
</svg>
