<svg width="23.000000" height="23.000000" viewBox="0 0 23 23" fill="none" xmlns="http://www.w3.org/2000/svg" xmlns:xlink="http://www.w3.org/1999/xlink">
	<desc>
			Created with Pixso.
	</desc>
	<defs>
		<clipPath id="clip14_1285">
			<rect id="google_icon-icons.com_62736" width="23.000000" height="23.000000" fill="white" fill-opacity="0"/>
		</clipPath>
	</defs>
	<g clip-path="url(#clip14_1285)">
		<path id="path" d="M1.9 6.41C2.6 4.99 3.58 3.79 4.82 2.79C6.5 1.44 8.43 0.62 10.59 0.37C13.13 0.08 15.51 0.55 17.72 1.84C18.27 2.16 18.78 2.52 19.27 2.92C19.39 3.01 19.38 3.07 19.28 3.17C18.27 4.14 17.27 5.12 16.28 6.1C16.16 6.22 16.1 6.21 15.97 6.11C13.06 3.92 8.81 4.52 6.64 7.41C6.26 7.92 5.95 8.47 5.74 9.07C5.72 9.12 5.68 9.17 5.66 9.22C5.08 8.79 4.49 8.36 3.92 7.93C3.24 7.42 2.57 6.92 1.9 6.41Z" fill="#E94335" fill-opacity="1.000000" fill-rule="nonzero"/>
		<path id="path" d="M5.66 13.34C5.85 13.76 6.01 14.19 6.25 14.58C7.27 16.22 8.73 17.27 10.65 17.64C12.38 17.98 14.04 17.75 15.59 16.9C15.64 16.88 15.7 16.85 15.75 16.82C15.78 16.85 15.8 16.88 15.82 16.9C16.98 17.78 18.15 18.66 19.31 19.54C18.75 20.08 18.12 20.51 17.44 20.89C15.49 21.98 13.37 22.42 11.14 22.25C8.37 22.04 5.97 20.97 3.99 19.04C3.13 18.19 2.41 17.23 1.9 16.14C2.38 15.78 2.86 15.42 3.34 15.06C4.11 14.49 4.88 13.92 5.66 13.34Z" fill="#34A853" fill-opacity="1.000000" fill-rule="nonzero"/>
		<path id="path" d="M19.31 19.54C18.15 18.66 16.99 17.78 15.83 16.9C15.8 16.88 15.78 16.85 15.75 16.82C16.15 16.52 16.56 16.23 16.89 15.84C17.44 15.2 17.8 14.47 17.99 13.66C18.01 13.56 18 13.53 17.89 13.53C17.84 13.54 17.79 13.53 17.73 13.53C15.9 13.53 14.06 13.53 12.23 13.54C12.03 13.54 11.98 13.48 11.99 13.29C12 12.02 12 10.75 11.99 9.47C11.99 9.31 12.03 9.27 12.2 9.27C15.56 9.27 18.92 9.27 22.29 9.27C22.43 9.27 22.49 9.3 22.52 9.45C22.8 10.66 22.78 11.87 22.61 13.09C22.48 14.07 22.24 15.01 21.86 15.92C21.31 17.27 20.5 18.45 19.43 19.46C19.39 19.49 19.35 19.51 19.31 19.54Z" fill="#4285F3" fill-opacity="1.000000" fill-rule="nonzero"/>
		<path id="path" d="M5.66 13.34C4.88 13.92 4.11 14.49 3.34 15.06C2.86 15.42 2.38 15.78 1.9 16.14C1.52 15.46 1.28 14.75 1.08 14.01C0.7 12.58 0.65 11.13 0.85 9.68C1.02 8.54 1.35 7.44 1.9 6.41C2.57 6.92 3.24 7.43 3.91 7.93C4.49 8.37 5.07 8.8 5.65 9.23C5.55 9.7 5.41 10.16 5.37 10.64C5.29 11.52 5.37 12.38 5.63 13.22C5.65 13.25 5.65 13.3 5.66 13.34Z" fill="#FABB06" fill-opacity="1.000000" fill-rule="nonzero"/>
	</g>
</svg>
