<svg width="30.000000" height="39.000000" viewBox="0 0 30 39" fill="none" xmlns="http://www.w3.org/2000/svg" xmlns:xlink="http://www.w3.org/1999/xlink">
	<desc>
			Created with Pixso.
	</desc>
	<defs/>
	<path id="Vector 3" d="M7.92 14.38C8.7 11.32 11.58 11.32 13.15 9.32C14.71 7.32 14.19 6.39 14.19 6.39C13.23 4.26 10.64 0 7.92 0C5.2 0 2.43 3.01 1.39 4.52C-0.71 7.72 0.03 10.78 0.6 13.31C1.39 16.78 2.3 21.3 5.83 26.9C9.36 32.49 11.84 34.36 15.5 36.75C18.2 38.17 24.22 40.38 26.73 37.82C29.24 35.26 29.24 35.63 29.87 33.29C30.49 30.95 28.76 28.1 25.69 26.9C22.62 25.7 20.3 26.37 17.59 28.5C14.87 30.63 11.84 24.5 10.01 21.57C10.01 21.57 7.14 17.44 7.92 14.38Z" fill="#03A9F4" fill-opacity="1.000000" fill-rule="evenodd"/>
</svg>
