<svg width="50.000000" height="50.000000" viewBox="0 0 50 50" fill="none" xmlns="http://www.w3.org/2000/svg" xmlns:xlink="http://www.w3.org/1999/xlink">
	<desc>
			Created with Pixso.
	</desc>
	<defs>
		<filter id="filter_2_76_dd" x="0.000000" y="0.000000" width="50.000000" height="50.000000" filterUnits="userSpaceOnUse" color-interpolation-filters="sRGB">
			<feFlood flood-opacity="0" result="BackgroundImageFix"/>
			<feBlend mode="normal" in="SourceGraphic" in2="BackgroundImageFix" result="shape"/>
			<feColorMatrix in="SourceAlpha" type="matrix" values="0 0 0 0 0 0 0 0 0 0 0 0 0 0 0 0 0 0 127 0" result="hardAlpha"/>
			<feOffset dx="0" dy="4"/>
			<feGaussianBlur stdDeviation="11.3333"/>
			<feComposite in2="hardAlpha" operator="arithmetic" k2="-1" k3="1"/>
			<feColorMatrix type="matrix" values="0 0 0 0 0 0 0 0 0 0 0 0 0 0 0 0 0 0 0.25 0"/>
			<feBlend mode="normal" in2="shape" result="effect_innerShadow_1"/>
		</filter>
	</defs>
	<g filter="url(#filter_2_76_dd)">
		<circle id="Oval 2" cx="25.000000" cy="25.000000" r="25.000000" fill="#808080" fill-opacity="1.000000"/>
		<path id="path" d="M25 50C21.68 50 18.49 49.36 15.43 48.09C12.37 46.82 9.66 45.02 7.32 42.67C4.97 40.33 3.17 37.62 1.9 34.56C0.63 31.5 0 28.31 0 25C0 21.68 0.63 18.49 1.9 15.43C3.17 12.37 4.97 9.66 7.32 7.32C9.66 4.97 12.37 3.17 15.43 1.9C18.49 0.63 21.68 0 25 0C28.31 0 31.5 0.63 34.56 1.9C37.62 3.17 40.33 4.97 42.67 7.32C45.02 9.66 46.82 12.37 48.09 15.43C49.36 18.49 50 21.68 50 25C50 28.31 49.36 31.5 48.09 34.56C46.82 37.62 45.02 40.33 42.67 42.67C40.33 45.02 37.62 46.82 34.56 48.09C31.5 49.36 28.31 50 25 50ZM25 3.84C22.19 3.84 19.49 4.38 16.9 5.45C14.31 6.52 12.02 8.05 10.04 10.04C8.05 12.02 6.52 14.31 5.45 16.9C4.38 19.49 3.84 22.19 3.84 25C3.84 27.8 4.38 30.5 5.45 33.09C6.52 35.68 8.05 37.97 10.04 39.95C12.02 41.94 14.31 43.47 16.9 44.54C19.49 45.61 22.19 46.15 25 46.15C27.8 46.15 30.5 45.61 33.09 44.54C35.68 43.47 37.97 41.94 39.95 39.95C41.94 37.97 43.47 35.68 44.54 33.09C45.61 30.5 46.15 27.8 46.15 25C46.15 22.19 45.61 19.49 44.54 16.9C43.47 14.31 41.94 12.02 39.95 10.04C37.97 8.05 35.68 6.52 33.09 5.45C30.5 4.38 27.8 3.84 25 3.84Z" fill="#B3B3B3" fill-opacity="1.000000" fill-rule="nonzero"/>
		<path id="path" d="M25 26.92C23.72 26.92 22.49 26.67 21.32 26.19C20.14 25.7 19.1 25 18.2 24.1C17.29 23.2 16.6 22.16 16.11 20.98C15.62 19.8 15.38 18.58 15.38 17.3C15.38 16.03 15.62 14.8 16.11 13.62C16.6 12.45 17.29 11.41 18.2 10.5C19.1 9.6 20.14 8.91 21.32 8.42C22.49 7.93 23.72 7.69 25 7.69C26.27 7.69 27.5 7.93 28.67 8.42C29.85 8.91 30.89 9.6 31.79 10.5C32.7 11.41 33.39 12.45 33.88 13.62C34.37 14.8 34.61 16.03 34.61 17.3C34.61 18.58 34.37 19.8 33.88 20.98C33.39 22.16 32.7 23.2 31.79 24.1C30.89 25 29.85 25.7 28.67 26.19C27.5 26.67 26.27 26.92 25 26.92ZM25 11.53C23.4 11.53 22.04 12.1 20.92 13.22C19.79 14.35 19.23 15.71 19.23 17.3C19.23 18.9 19.79 20.26 20.92 21.38C22.04 22.51 23.4 23.07 25 23.07C26.59 23.07 27.95 22.51 29.07 21.38C30.2 20.26 30.76 18.9 30.76 17.3C30.76 15.71 30.2 14.35 29.07 13.22C27.95 12.1 26.59 11.53 25 11.53Z" fill="#B3B3B3" fill-opacity="1.000000" fill-rule="nonzero"/>
		<path id="path" d="M43.36 40.38C42.8 40.38 42.32 40.18 41.94 39.76C37.62 35.06 32.27 32.7 25.88 32.69L24.11 32.69C18.26 32.67 13.23 34.7 9.01 38.76C8.1 39.52 7.23 39.47 6.4 38.61C5.58 37.75 5.56 36.88 6.36 36C11.31 31.21 17.23 28.83 24.11 28.84L25.88 28.84C33.39 28.86 39.68 31.63 44.76 37.15C45.33 37.76 45.45 38.45 45.12 39.22C44.78 39.99 44.2 40.38 43.36 40.38Z" fill="#B3B3B3" fill-opacity="1.000000" fill-rule="nonzero"/>
	</g>
</svg>
