<svg width="14.249847" height="14.249878" viewBox="0 0 14.2498 14.2499" fill="none" xmlns="http://www.w3.org/2000/svg" xmlns:xlink="http://www.w3.org/1999/xlink">
	<desc>
			Created with Pixso.
	</desc>
	<defs/>
	<path id="XMLID_223_" d="M13.9 12.22L10.88 9.2C11.51 8.26 11.87 7.14 11.87 5.93C11.87 2.66 9.21 0 5.93 0C2.66 0 0 2.66 0 5.93C0 9.21 2.66 11.87 5.93 11.87C7.14 11.87 8.26 11.51 9.2 10.88L12.22 13.9C12.68 14.36 13.43 14.36 13.9 13.9C14.36 13.43 14.36 12.68 13.9 12.22ZM1.78 5.93C1.78 3.64 3.64 1.78 5.93 1.78C8.22 1.78 10.09 3.64 10.09 5.93C10.09 8.22 8.22 10.09 5.93 10.09C3.64 10.09 1.78 8.22 1.78 5.93Z" fill="#808080" fill-opacity="1.000000" fill-rule="nonzero"/>
</svg>
