<svg width="255.000000" height="255.000000" viewBox="0 0 255 255" fill="none" xmlns="http://www.w3.org/2000/svg" xmlns:xlink="http://www.w3.org/1999/xlink">
	<desc>
			Created with Pixso.
	</desc>
	<defs/>
	<rect id="Frame 124" width="255.000000" height="255.000000" fill="#FFFFFF" fill-opacity="0"/>
	<circle id="Oval 11" cx="127.500000" cy="127.500000" r="127.500000" fill="#B3B3B3" fill-opacity="1.000000"/>
	<ellipse id="Oval 15" cx="127.500000" cy="124.415649" rx="82.500000" ry="82.415672" fill="#808080" fill-opacity="1.000000"/>
	<ellipse id="Oval 16" cx="160.500000" cy="87.328613" rx="12.375001" ry="12.362350" fill="#03A9F4" fill-opacity="1.000000"/>
	<ellipse id="Oval 18" cx="127.500000" cy="173.865051" rx="12.375001" ry="12.362350" fill="#03A9F4" fill-opacity="1.000000"/>
	<ellipse id="Oval 23" cx="160.500000" cy="157.381958" rx="12.375001" ry="12.362350" fill="#03A9F4" fill-opacity="1.000000"/>
	<ellipse id="Oval 24" cx="127.500000" cy="74.966309" rx="12.375001" ry="12.362350" fill="#03A9F4" fill-opacity="1.000000"/>
	<ellipse id="Oval 20" cx="94.500000" cy="161.502747" rx="12.375001" ry="12.362350" fill="#03A9F4" fill-opacity="1.000000"/>
	<ellipse id="Oval 21" cx="78.000000" cy="124.415710" rx="12.375001" ry="12.362350" fill="#03A9F4" fill-opacity="1.000000"/>
	<ellipse id="Oval 19" cx="177.000000" cy="124.415710" rx="12.375001" ry="12.362350" fill="#03A9F4" fill-opacity="1.000000"/>
	<ellipse id="Oval 17" cx="94.500000" cy="87.328613" rx="12.375001" ry="12.362350" fill="#03A9F4" fill-opacity="1.000000"/>
	<path id="Vector 15" d="M67.68 213.01L94.5 196.52L158.43 200.65C158.43 200.65 151.21 206.31 129.56 208.89C107.9 211.46 67.68 213.01 67.68 213.01Z" fill="#808080" fill-opacity="1.000000" fill-rule="evenodd"/>
</svg>
